<svg xmlns="http://www.w3.org/2000/svg" version="1.1" xmlns:xlink="http://www.w3.org/1999/xlink" xmlns:svgjs="http://svgjs.dev/svgjs" viewBox="0 0 800 800">
  <defs>
    <linearGradient x1="50%" y1="0%" x2="50%" y2="100%" id="ssspill-grad">
      <stop stop-color="hsl(171, 61%, 42%)" stop-opacity="1" offset="45%"/>
      <stop stop-color="hsl(205, 69%, 80%)" stop-opacity="1" offset="100%"/>
    </linearGradient>
    <filter id="ssspot-filter" x="-20%" y="-20%" width="140%" height="140%" filterUnits="objectBoundingBox" primitiveUnits="userSpaceOnUse" color-interpolation-filters="sRGB">
      <feTurbulence type="turbulence" baseFrequency="0.022 0.218" numOctaves="2" seed="19" stitchTiles="stitch" x="0%" y="0%" width="100%" height="100%" result="turbulence"/>
      <feGaussianBlur stdDeviation="0 3" x="0%" y="0%" width="100%" height="100%" in="turbulence" edgeMode="duplicate" result="blur"/>
      <feDisplacementMap in="SourceGraphic" in2="blur" scale="32" xChannelSelector="R" yChannelSelector="B" x="0%" y="0%" width="100%" height="100%" result="displacementMap"/>
    </filter>
  </defs>
  <rect width="100%" height="100%" fill="#151515"/>
  <g fill="url(#ssspill-grad)" filter="url(#ssspot-filter)">
    <circle r="8.475590770147974" cx="650.1479656264986" cy="703.9830137854983" opacity="0.31875078945423274"/>
    <circle r="3.076641830232973" cx="505.6361451746796" cy="790.8146285645068" opacity="0.816291623435729"/>
    <circle r="2.316668733164188" cx="8.60905372566656" cy="780.9200386815724" opacity="0.9446722325617359"/>
    <circle r="7.1872027876418745" cx="245.8950245539728" cy="128.10563597780117" opacity="0.24165372795102988"/>
    <circle r="4.57770942836733" cx="681.7976800531137" cy="639.5542073038044" opacity="0.21912176691287538"/>
    <circle r="5.496830369403059" cx="285.5032305431433" cy="278.64605698303814" opacity="0.13863118697430948"/>
    <circle r="4.320342512483577" cx="151.2219288240468" cy="177.6505064294483" opacity="0.9051602195049571"/>
    <circle r="4.692461354514487" cx="97.5189730032049" cy="266.8282847145527" opacity="0.9184354719795712"/>
    <circle r="3.8623286954637743" cx="64.79184785107708" cy="190.9388541258213" opacity="0.2035173593541807"/>
    <circle r="4.866653410848576" cx="787.6384257640706" cy="256.89590543788336" opacity="0.16387604630779423"/>
    <circle r="5.5873949241520195" cx="353.4068166369755" cy="571.7100473405079" opacity="0.5523011844198465"/>
    <circle r="4.129373178728869" cx="632.3527303407432" cy="786.2329568266043" opacity="0.4417046399878408"/>
    <circle r="7.174540617728159" cx="784.4873566925359" cy="576.9599015991373" opacity="0.256911373576178"/>
    <circle r="8.608612319771435" cx="328.99565572579786" cy="651.8751062239069" opacity="0.321394971279928"/>
    <circle r="3.335966548751979" cx="395.6338068227889" cy="34.405964219036505" opacity="0.27163489956933684"/>
    <circle r="8.467315341382706" cx="84.9620604014797" cy="321.5186400719306" opacity="0.8995825912353913"/>
    <circle r="8.770550570822262" cx="454.55569418491774" cy="574.5164396646459" opacity="0.8869475051175527"/>
    <circle r="3.3008176810388847" cx="418.0243110138522" cy="430.14239761558804" opacity="0.8815735287955563"/>
    <circle r="3.252852424717114" cx="688.1409005344165" cy="602.1563583240326" opacity="0.4010296709780137"/>
    <circle r="6.232090685878537" cx="448.71731212236057" cy="111.40191185544815" opacity="0.31887816718227"/>
    <circle r="6.217942671005861" cx="680.8872897956288" cy="101.01190507347539" opacity="0.21136759851019674"/>
    <circle r="6.0755796177693195" cx="46.93191569985483" cy="564.901773831697" opacity="0.897517003546373"/>
    <circle r="4.536582797484299" cx="190.6879546992618" cy="82.18294570248524" opacity="0.30140104366060005"/>
    <circle r="7.986342923298522" cx="662.7089364140886" cy="193.38328393723046" opacity="0.49463648679351846"/>
    <circle r="5.369244733690287" cx="771.5080451130463" cy="431.9807981747849" opacity="0.23266516652126418"/>
    <circle r="5.503831460866143" cx="470.83103178642216" cy="627.7091578711423" opacity="0.9143014120802813"/>
    <circle r="5.8311893898788565" cx="412.0345020574324" cy="722.9129847708828" opacity="0.9656006084130564"/>
    <circle r="2.987741962887659" cx="339.76863711963676" cy="142.63634522221435" opacity="0.5923800408917071"/>
    <circle r="3.8673213081308884" cx="66.38504266356055" cy="221.83536080325612" opacity="0.48096890153698824"/>
    <circle r="8.313908522172035" cx="479.84762506211644" cy="770.7125807988382" opacity="0.772009800444421"/>
    <circle r="8.38544533954598" cx="530.5411961705806" cy="569.1764401477323" opacity="0.5544411387211561"/>
    <circle r="5.469094222799297" cx="120.13354403351309" cy="479.4801265357461" opacity="0.11650600022645577"/>
    <circle r="10.308815203045487" cx="253.60660523823722" cy="84.99107849328163" opacity="0.8908431500854288"/>
    <circle r="8.09461572853699" cx="503.8144929664337" cy="136.5742709088524" opacity="0.9807902449479091"/>
    <circle r="5.949899813654745" cx="67.40952732753826" cy="21.040019508669435" opacity="0.7582827616438289"/>
    <circle r="5.660657576459362" cx="361.8300451901905" cy="394.9709834717311" opacity="0.8300388021463198"/>
    <circle r="3.418110361138095" cx="306.31385212856804" cy="300.55435168928625" opacity="0.6761563308026677"/>
    <circle r="4.038046017206857" cx="181.0633034545628" cy="784.8308842443295" opacity="0.6854088175681959"/>
    <circle r="5.159659468905716" cx="73.29334620504065" cy="274.99239921345264" opacity="0.7313605012185809"/>
    <circle r="5.187345541058547" cx="243.926014362084" cy="571.3052858103318" opacity="0.8814392907408545"/>
    <circle r="6.589261019546907" cx="151.55162450716867" cy="266.6079050988255" opacity="0.6603351650837291"/>
    <circle r="3.392339245363333" cx="100.8465846778979" cy="32.1425121151874" opacity="0.4890843732400594"/>
    <circle r="4.550211014203945" cx="189.64378432115814" cy="396.97811481916654" opacity="0.27629772485321175"/>
    <circle r="2.305732545824908" cx="292.87762728105" cy="445.4532898376116" opacity="0.6149542228665776"/>
    <circle r="6.040941505068108" cx="267.14415381993484" cy="505.39086460505933" opacity="0.6707847890312605"/>
    <circle r="6.116552708984566" cx="632.0545709918064" cy="37.46531932658264" opacity="0.7916540643740946"/>
    <circle r="6.120942296583995" cx="25.44176478612964" cy="23.898577094409568" opacity="0.8877817230731727"/>
    <circle r="5.700070814468739" cx="39.885181629554474" cy="692.8295502785021" opacity="0.373079445926782"/>
    <circle r="5.612650385171845" cx="335.1401880904763" cy="13.884826985565489" opacity="0.5946954577670023"/>
    <circle r="7.9450337140273835" cx="137.2950056729128" cy="651.7794328567419" opacity="0.5038962280268318"/>
    <circle r="3.9398408116962615" cx="327.7211151362047" cy="466.71404169724684" opacity="0.17617184075145437"/>
    <circle r="3.1887499283981398" cx="224.38384794520096" cy="589.0088741309938" opacity="0.32120481514147303"/>
    <circle r="5.438812848088999" cx="277.56698864877524" cy="429.9407789550966" opacity="0.10689500546055497"/>
    <circle r="10.08823130580496" cx="489.6839249817555" cy="500.5464697805629" opacity="0.3920554451761311"/>
    <circle r="4.758645515316219" cx="143.49666927053275" cy="441.53843387513075" opacity="0.7103676063364873"/>
    <circle r="4.961268944282718" cx="60.906773156522675" cy="256.6003271672666" opacity="0.5560400944086503"/>
    <circle r="5.089675542049349" cx="658.1903936125436" cy="233.39383180830276" opacity="0.291000237788389"/>
    <circle r="2.9828364966704397" cx="695.2787474475291" cy="624.767579346872" opacity="0.9700809492985321"/>
    <circle r="6.394749793313666" cx="249.13145573423037" cy="419.92157500512735" opacity="0.9439544590746706"/>
    <circle r="6.294431391884981" cx="114.9702413302958" cy="114.2270933390786" opacity="0.2817264842030134"/>
    <circle r="5.317892655155183" cx="405.2910005574671" cy="517.7975520264928" opacity="0.532269504247582"/>
    <circle r="4.931144759672958" cx="707.5924602045087" cy="557.1257206827499" opacity="0.8596553776619994"/>
    <circle r="4.319864803794067" cx="26.502713920183055" cy="240.18974197814447" opacity="0.7135615299227696"/>
    <circle r="6.278195572613368" cx="350.48150696775764" cy="277.3411563768263" opacity="0.25715802723313674"/>
    <circle r="4.633382478985222" cx="253.24251561182274" cy="691.7334615227023" opacity="0.32975241534982713"/>
    <circle r="6.593490969726773" cx="435.5300390167145" cy="205.12357950702324" opacity="0.6420055690190779"/>
    <circle r="5.003400503700076" cx="236.6472569337789" cy="493.515283839534" opacity="0.8607098395805135"/>
    <circle r="4.0399375615033275" cx="121.31304198387237" cy="175.62153111989866" opacity="0.6127670583181176"/>
    <circle r="4.643461813466481" cx="67.01095795826849" cy="774.8805077715244" opacity="0.4711833891036896"/>
    <circle r="6.795261909951018" cx="391.5231020501643" cy="210.94501327091933" opacity="0.32685647847313815"/>
    <circle r="7.626051725472049" cx="660.1635937121824" cy="306.7391909818651" opacity="0.29357310792344066"/>
    <circle r="7.500019249809379" cx="767.9687594421198" cy="311.9396107569726" opacity="0.9076640150576514"/>
    <circle r="7.330171244459056" cx="402.4663795709617" cy="645.6318143118089" opacity="0.8105747739163097"/>
    <circle r="4.316888127492992" cx="247.4440430914731" cy="760.8021030480372" opacity="0.7478320688383955"/>
    <circle r="4.762679042758132" cx="90.10518522030756" cy="155.6420258103839" opacity="0.5231093784119186"/>
    <circle r="7.856980777778517" cx="392.739661556175" cy="256.54944965009196" opacity="0.7136861467029875"/>
    <circle r="5.637991414947878" cx="717.7153343362295" cy="23.041178467711685" opacity="0.30346452004044544"/>
    <circle r="5.0512369105566" cx="383.3155370427192" cy="359.4263769806993" opacity="0.6623850036929305"/>
    <circle r="3.433149014512406" cx="636.0781541191088" cy="413.8140612372281" opacity="0.9601784665468263"/>
    <circle r="5.2862303902359535" cx="164.97999261722927" cy="382.83599322993615" opacity="0.45028018769626443"/>
    <circle r="8.680993670433482" cx="420.21296810381733" cy="558.476289008828" opacity="0.6872539147274999"/>
    <circle r="5.601646700347584" cx="157.30228790408927" cy="134.90891485648362" opacity="0.6417233080608596"/>
    <circle r="3.323863101101962" cx="118.44622198160212" cy="245.23472682640877" opacity="0.2769484459770829"/>
    <circle r="6.382570009022924" cx="428.69554424592576" cy="682.4057580728247" opacity="0.8674705880326598"/>
    <circle r="3.795717736167113" cx="751.8630087520979" cy="180.58557374806085" opacity="0.5475695167099573"/>
    <circle r="4.1185435952716745" cx="786.5437892286267" cy="92.27436353085626" opacity="0.6182568873462221"/>
    <circle r="4.643638318556302" cx="305.3118200396057" cy="482.26019960997905" opacity="0.3985251634746618"/>
    <circle r="2.5715661224524435" cx="239.53770025533197" cy="553.303947890043" opacity="0.664156976657266"/>
    <circle r="5.42453544752464" cx="456.21168568036603" cy="144.92365766645526" opacity="0.15943523370462864"/>
    <circle r="5.756084524561" cx="492.84648238117575" cy="56.67950840619516" opacity="0.8794857457117431"/>
    <circle r="5.268355583245862" cx="180.66082830767755" cy="611.0006719455334" opacity="0.2845176989987601"/>
    <circle r="7.089403961976718" cx="270.50968705698625" cy="577.1453247887146" opacity="0.619594586410403"/>
    <circle r="3.4428146537503506" cx="673.648672023008" cy="460.09894816382814" opacity="0.8332725643089256"/>
    <circle r="5.032621038088427" cx="74.88785820683553" cy="618.9188881900133" opacity="0.23106149851725494"/>
    <circle r="4.311565405515776" cx="475.6078507087085" cy="427.7517657315485" opacity="0.5227567883373101"/>
    <circle r="5.153393718507747" cx="661.9142452253357" cy="404.13208123616494" opacity="0.49791186387003905"/>
    <circle r="4.9176483589597755" cx="291.4113669767156" cy="322.00701217336643" opacity="0.2462530771238262"/>
    <circle r="7.967045433753356" cx="209.6918305375919" cy="476.23012521774746" opacity="0.431731360703008"/>
    <circle r="6.279123435711498" cx="626.3556523759703" cy="733.0691911511774" opacity="0.380296005650234"/>
    <circle r="5.9519471203727" cx="289.2410976694409" cy="372.34235872942196" opacity="0.20484577587912056"/>
    <circle r="6.84425627925642" cx="553.9890759832516" cy="192.37926171522645" opacity="0.48644560292030414"/>
    <circle r="6.476757508130497" cx="585.8625470096147" cy="53.767766568434894" opacity="0.3182368918212426"/>
    <circle r="4.579387179308884" cx="597.563454880347" cy="478.96445040012446" opacity="0.9725280769633785"/>
    <circle r="6.580960960545034" cx="475.33870161472373" cy="118.42979711814522" opacity="0.7529606878792038"/>
    <circle r="4.707029783650043" cx="152.98956759103416" cy="297.83269348156375" opacity="0.3151439774013769"/>
    <circle r="5.669812547559267" cx="177.56252711785396" cy="256.30973558031604" opacity="0.7376026494355429"/>
    <circle r="4.428310665290958" cx="252.22350216696884" cy="719.4637538095187" opacity="0.59091137189491"/>
    <circle r="5.1283897933283" cx="360.86551856179204" cy="629.1049419971868" opacity="0.9610371454211332"/>
    <circle r="8.982234248120044" cx="327.38344410875993" cy="546.0227556124557" opacity="0.5024393390054224"/>
    <circle r="4.342167922645776" cx="429.63818301492324" cy="387.8301771064167" opacity="0.7104479892074432"/>
    <circle r="4.517038380317911" cx="645.1002373130865" cy="589.6910210207836" opacity="0.4318949727007113"/>
    <circle r="7.236798146979458" cx="755.7990194877411" cy="251.57765008797702" opacity="0.20932538461807704"/>
    <circle r="3.198630687957517" cx="788.6391286364423" cy="705.449879678446" opacity="0.9109722468798359"/>
    <circle r="5.236704576226575" cx="668.2207560036377" cy="45.13424420498523" opacity="0.17309022115496325"/>
    <circle r="5.901921945969986" cx="209.48017562026635" cy="761.9597703870161" opacity="0.39997996748443576"/>
    <circle r="6.218379187826281" cx="731.7164755495378" cy="542.3294923312671" opacity="0.8542917438465792"/>
    <circle r="6.173428395280115" cx="526.4460468227682" cy="166.11873315818212" opacity="0.1401232164764675"/>
    <circle r="10.2678321910693" cx="552.1555343913677" cy="611.6830808362238" opacity="0.7943360482133116"/>
    <circle r="6.66486162444913" cx="444.23635211074117" cy="653.5596570474687" opacity="0.8054122015953713"/>
    <circle r="5.802021543950593" cx="511.8524659297727" cy="255.6334617398039" opacity="0.12170005417766568"/>
    <circle r="4.027767323198866" cx="757.3535161526332" cy="555.7174071248941" opacity="0.33808043720058345"/>
    <circle r="8.12319044976789" cx="707.6863391806482" cy="318.43310372302267" opacity="0.8776402678234361"/>
    <circle r="7.108796206592492" cx="242.43611848007623" cy="388.85818092077255" opacity="0.7892845401431613"/>
    <circle r="4.742040366527705" cx="325.530257820227" cy="406.27705895546745" opacity="0.9961166324015878"/>
    <circle r="4.515192974118292" cx="429.13341470158736" cy="162.10441794036493" opacity="0.43183281123839734"/>
    <circle r="5.952035376622327" cx="559.2619185075122" cy="548.2746581091341" opacity="0.6047621015154169"/>
    <circle r="5.570087244274196" cx="445.8850736771735" cy="712.2798723173044" opacity="0.8694017613102174"/>
    <circle r="4.7829035275164555" cx="91.92545383302638" cy="291.77144108776224" opacity="0.689536853297782"/>
    <circle r="5.248087676109147" cx="107.43484736077637" cy="58.05165845203417" opacity="0.6980891131542686"/>
    <circle r="4.75455543542887" cx="784.7923150352384" cy="462.7841230631179" opacity="0.17190585937180686"/>
    <circle r="8.43364493939484" cx="393.27349105078605" cy="688.4870562468101" opacity="0.796063215685576"/>
    <circle r="5.495490981036758" cx="296.58811524983184" cy="502.5928054042136" opacity="0.4555995695319808"/>
    <circle r="3.7019651475492013" cx="713.1443572393453" cy="652.1171097408752" opacity="0.6740338352905495"/>
    <circle r="3.7397905460355054" cx="626.1401999790606" cy="498.896530135052" opacity="0.9271722748249757"/>
    <circle r="4.6375647717750965" cx="641.0767390822244" cy="10.346891914218968" opacity="0.11933402315001361"/>
    <circle r="6.476482690512693" cx="692.6764583518952" cy="218.1171062491867" opacity="0.5582106432851828"/>
    <circle r="4.507541585304923" cx="509.44330621372063" cy="331.0174646464884" opacity="0.7598649251025348"/>
    <circle r="5.554610512525892" cx="625.6101293981457" cy="297.61999907396324" opacity="0.5201380811886904"/>
    <circle r="4.6803708510416655" cx="353.87242330479717" cy="517.5117243594594" opacity="0.7062175386286259"/>
    <circle r="4.951940609357997" cx="786.9056077006662" cy="671.4594509013065" opacity="0.5603521452232378"/>
    <circle r="7.753405103561747" cx="623.3977574093748" cy="265.5882537428759" opacity="0.9335609607897482"/>
    <circle r="3.9116751753654317" cx="529.5338590860637" cy="45.27265064802495" opacity="0.8709469760456767"/>
    <circle r="3.9356156065717496" cx="581.4100947770345" cy="291.2981787403126" opacity="0.42118509874539545"/>
    <circle r="4.135799990844203" cx="600.6026842225039" cy="139.01530298869295" opacity="0.38822797778939344"/>
    <circle r="8.322294494532573" cx="116.65680172448883" cy="692.9671658208526" opacity="0.24432361102273123"/>
    <circle r="5.412013460985612" cx="207.02496834357842" cy="278.48510126177194" opacity="0.9210829575067482"/>
    <circle r="4.423400178977145" cx="254.49138865778124" cy="444.1378653425103" opacity="0.5359026743699743"/>
    <circle r="5.0771183003349885" cx="271.8980796738465" cy="460.56500473613636" opacity="0.8099156578182248"/>
    <circle r="6.252287806513513" cx="325.15194478481965" cy="376.06529952184263" opacity="0.13243059999026277"/>
    <circle r="4.713501596206701" cx="531.2746746166276" cy="382.6703000800273" opacity="0.1168081576528559"/>
    <circle r="6.007344744201384" cx="291.8484489541146" cy="101.76488597663813" opacity="0.5962692507996273"/>
    <circle r="5.2377514982856415" cx="476.60916477241847" cy="266.8677308986569" opacity="0.21864933185806879"/>
    <circle r="5.2671379917593235" cx="360.2177334405768" cy="187.14200045012385" opacity="0.44253637736369333"/>
    <circle r="5.780185367153393" cx="766.5108389492455" cy="352.114369728797" opacity="0.7793388658991854"/>
    <circle r="4.04349280020702" cx="726.210875994083" cy="229.1389717769699" opacity="0.8741565509220591"/>
    <circle r="5.104302042025031" cx="684.1292630264405" cy="661.1629841750239" opacity="0.5473857289194142"/>
    <circle r="5.018355606749522" cx="775.287006845378" cy="163.5487197494676" opacity="0.14908704414016768"/>
    <circle r="4.4300833659183185" cx="396.4407142409018" cy="423.1551867637838" opacity="0.17601667714068275"/>
    <circle r="4.891753439491337" cx="91.9463594961278" cy="227.7365276914439" opacity="0.5285849461646167"/>
    <circle r="6.00818479701634" cx="421.25998334356143" cy="130.18509544845307" opacity="0.671876488931127"/>
    <circle r="2.1886911453154547" cx="788.7005839213757" cy="728.1591906727557" opacity="0.8359507051843318"/>
    <circle r="7.220102549402354" cx="45.41561563682903" cy="475.37011382449464" opacity="0.8087164879340122"/>
    <circle r="4.716251692319979" cx="271.97262452091604" cy="304.39401139512785" opacity="0.6876419486845934"/>
    <circle r="4.077479394825388" cx="673.7092366032819" cy="160.4951895086094" opacity="0.4612956336498889"/>
    <circle r="5.091995998590243" cx="140.50677370541044" cy="367.88571330170663" opacity="0.7491405208155686"/>
    <circle r="8.460480637351711" cx="194.37065781202463" cy="162.66995959102525" opacity="0.8911316899792778"/>
    <circle r="7.471716102698897" cx="641.9996098024329" cy="73.97890904410313" opacity="0.35813062796011286"/>
    <circle r="5.833835670238333" cx="560.4470206501674" cy="80.36080524604527" opacity="0.2918768209563675"/>
    <circle r="7.480811258498196" cx="623.2214910246976" cy="341.08766788630675" opacity="0.3097292221252858"/>
    <circle r="6.599978139051572" cx="72.37170305766888" cy="678.6319489374381" opacity="0.9211547918014885"/>
    <circle r="7.925204912893937" cx="94.88513846854573" cy="650.3301463094675" opacity="0.19584611688898035"/>
    <circle r="8.16184056742836" cx="497.2904974483053" cy="365.47375984578997" opacity="0.24148097003371016"/>
    <circle r="5.342996617800898" cx="763.2163338008577" cy="685.8821931986911" opacity="0.3860552839114252"/>
    <circle r="6.069086865122619" cx="561.0952309718109" cy="407.8292813360935" opacity="0.6321679280319575"/>
    <circle r="4.905460165080127" cx="228.62302563780173" cy="787.4183091599924" opacity="0.9372031549259501"/>
    <circle r="3.807688452372748" cx="423.14459192884" cy="97.59744332550822" opacity="0.47736888879803885"/>
    <circle r="5.419414852418773" cx="690.5521052443445" cy="695.5856130663824" opacity="0.6789272486922295"/>
    <circle r="9.891542568120116" cx="446.054934954412" cy="512.1326011510419" opacity="0.2580517266781398"/>
    <circle r="3.6505617229824745" cx="206.60314142657586" cy="559.0714998282781" opacity="0.9129921728843546"/>
    <circle r="6.187961964462209" cx="221.1088094281046" cy="73.86392530195086" opacity="0.14671613427467167"/>
    <circle r="7.5976416001859715" cx="628.039861754667" cy="375.9603332444159" opacity="0.1142689102456242"/>
    <circle r="7.086899077279827" cx="348.41155965376345" cy="702.0550974410403" opacity="0.7943953637042092"/>
    <circle r="7.003580395824975" cx="664.1555793137181" cy="370.92577474671646" opacity="0.740046887058889"/>
    <circle r="5.266097426960556" cx="178.6185393641326" cy="223.18191371836306" opacity="0.8363081370158167"/>
    <circle r="8.83184776894198" cx="319.9727155023754" cy="259.9374127772727" opacity="0.55065486512576"/>
    <circle r="4.317357816539344" cx="735.8636535102905" cy="787.5620608958674" opacity="0.7350698080022707"/>
    <circle r="5.391981258868164" cx="762.0590189084195" cy="711.7659401356693" opacity="0.9001755408137532"/>
    <circle r="6.3860160566942" cx="498.81383705957273" cy="97.64758876971283" opacity="0.16083371844263883"/>
    <circle r="5.093562278329252" cx="562.2228154732912" cy="278.8132321252777" opacity="0.3961761123482377"/>
    <circle r="6.9158240353740235" cx="602.0397484660807" cy="23.92324154259716" opacity="0.2830763794151816"/>
    <circle r="3.643810845966658" cx="477.908366702317" cy="653.3685494988293" opacity="0.5718215174477914"/>
    <circle r="6.540185047936166" cx="346.5510243169805" cy="225.14761849281118" opacity="0.20772582770369252"/>
    <circle r="4.337997483747923" cx="791.222921847889" cy="46.838317069625354" opacity="0.1720052576809497"/>
    <circle r="3.8688279768736615" cx="512.6524164254446" cy="692.6403206591949" opacity="0.18942853479153698"/>
    <circle r="6.365699843750521" cx="686.2138677667616" cy="482.9005725147699" opacity="0.353785121546661"/>
    <circle r="5.031607011722163" cx="480.5395724034136" cy="383.27095041350185" opacity="0.5983598857784708"/>
    <circle r="7.268202538766451" cx="276.97919608132617" cy="740.0442394457456" opacity="0.7389519427583243"/>
    <circle r="7.781424702735816" cx="166.17893217747658" cy="685.6766341811255" opacity="0.38473813007148583"/>
    <circle r="4.803975301341727" cx="439.50547136070924" cy="432.2080429217844" opacity="0.23031105409080369"/>
    <circle r="6.840761396522512" cx="203.4210975181718" cy="121.92432760877546" opacity="0.12161523229484707"/>
    <circle r="6.5961403375834315" cx="262.8356865029297" cy="666.3091313518282" opacity="0.5767740792115897"/>
    <circle r="6.840338968207674" cx="226.51457722690185" cy="733.3682849325428" opacity="0.10383260092396357"/>
    <circle r="4.36479567752769" cx="710.6970086575335" cy="753.9052071259894" opacity="0.4284177062311034"/>
    <circle r="5.433872365981159" cx="705.5130155321909" cy="499.62023623850894" opacity="0.8008916998355469"/>
    <circle r="5.320985646527569" cx="774.6709693482993" cy="284.7414859366687" opacity="0.5773414617685447"/>
    <circle r="4.6115234252157755" cx="375.0500851885477" cy="529.6073275574344" opacity="0.23464318314762841"/>
    <circle r="4.174241468975569" cx="722.4573020960853" cy="691.4429004128245" opacity="0.6532182182394186"/>
    <circle r="7.62407833140617" cx="631.0393794050816" cy="562.3384298018674" opacity="0.38563601364470257"/>
    <circle r="4.611160925941438" cx="782.681984331409" cy="212.0769253394438" opacity="0.19645217123369"/>
    <circle r="6.822093804429173" cx="161.1640778028276" cy="630.7918047038794" opacity="0.4152866985644782"/>
    <circle r="5.978361729588196" cx="214.0067417537616" cy="383.51631245877087" opacity="0.4225027831526348"/>
    <circle r="5.168814690276241" cx="598.269242652183" cy="314.21527533004337" opacity="0.1568141734576219"/>
    <circle r="5.761670018202793" cx="293.23919452477406" cy="404.45325278978544" opacity="0.3166006696391956"/>
    <circle r="3.7741696262703606" cx="528.3079308416014" cy="345.5894043781478" opacity="0.4635117209707278"/>
    <circle r="5.49620093300567" cx="206.78022021624128" cy="698.9922109119376" opacity="0.44945967980237367"/>
    <circle r="6.92571647257454" cx="450.1579637621804" cy="746.2017515395925" opacity="0.12235187672211341"/>
    <circle r="6.566955220534595" cx="369.84783144856414" cy="753.8246960879122" opacity="0.7436009892598416"/>
    <circle r="6.254082560533387" cx="20.234741228135974" cy="320.2323939495498" opacity="0.6326564117424083"/>
    <circle r="5.868130948957584" cx="458.5888090131144" cy="14.115120291731545" opacity="0.5593143147659672"/>
    <circle r="3.9712853487706328" cx="164.41304923419045" cy="588.6563288936641" opacity="0.5107507513785601"/>
    <circle r="5.5902537281815405" cx="250.26606364954307" cy="636.1495472987823" opacity="0.5624638168290657"/>
    <circle r="6.122102049755639" cx="54.14186904773927" cy="337.2346255821469" opacity="0.9002838948034024"/>
    <circle r="8.610265442565279" cx="13.310871617751827" cy="568.1060473013274" opacity="0.4813490191509079"/>
    <circle r="2.9272942496091003" cx="276.89954527917644" cy="339.32206618675514" opacity="0.9783367146374458"/>
    <circle r="4.389861185198627" cx="789.5229178200779" cy="337.87706908632" opacity="0.6062928333240597"/>
    <circle r="6.341413753889111" cx="558.0109293215986" cy="698.9986652644916" opacity="0.6059444940752942"/>
    <circle r="4.233824258684162" cx="341.08550020455493" cy="740.1057472184427" opacity="0.5403367410870021"/>
    <circle r="5.191274461900889" cx="663.7900172598786" cy="269.5254693138928" opacity="0.8300857508695662"/>
    <circle r="4.748814543786616" cx="32.45587203983799" cy="157.78827379717148" opacity="0.7589945807530173"/>
    <circle r="3.107394608084695" cx="390.41496827956746" cy="9.77855747626849" opacity="0.12960298647945162"/>
    <circle r="3.306447916086614" cx="209.37444292958128" cy="539.6632078309284" opacity="0.11017154301127675"/>
    <circle r="5.558105654046594" cx="49.32788178325823" cy="103.46057031831415" opacity="0.869006746930246"/>
    <circle r="4.897131512116083" cx="637.9609128276245" cy="108.91956683376297" opacity="0.9597111535133368"/>
    <circle r="6.326864541645003" cx="725.4599786543296" cy="373.67534831581753" opacity="0.209354147316101"/>
    <circle r="6.660031590349602" cx="467.82931084108935" cy="297.2047729572164" opacity="0.3809631291273463"/>
    <circle r="5.744544250595208" cx="248.97566836070493" cy="325.83838381159006" opacity="0.7648809402860788"/>
    <circle r="7.133880383551579" cx="277.65958022995943" cy="49.623253389160865" opacity="0.9508122141513548"/>
    <circle r="6.2552004696238015" cx="627.0552075970846" cy="663.5156880076705" opacity="0.13843536556737718"/>
    <circle r="4.638533581963024" cx="685.8232519876976" cy="15.99958384874772" opacity="0.5131007716589727"/>
    <circle r="6.845150077602141" cx="378.35588298996515" cy="721.7990914086583" opacity="0.7820773069518658"/>
    <circle r="3.228963707592505" cx="319.47271123844405" cy="165.64534876392221" opacity="0.7191883808330668"/>
    <circle r="4.776051207266761" cx="354.3730834564004" cy="368.7798562104331" opacity="0.7601547150646196"/>
    <circle r="4.153839839924454" cx="364.06474101593165" cy="422.3152459733793" opacity="0.5209200800931248"/>
    <circle r="7.263167955764882" cx="456.99451022811337" cy="350.47165128618894" opacity="0.6650971165730375"/>
    <circle r="4.567545061845897" cx="168.18605251202695" cy="417.11183802151504" opacity="0.5549357235335571"/>
    <circle r="6.891543003679777" cx="157.5448425199705" cy="17.772115729340427" opacity="0.1937658522438147"/>
    <circle r="5.270101777070185" cx="447.1796426936536" cy="409.64647391185264" opacity="0.863962030237365"/>
    <circle r="4.267670361423923" cx="43.090372154676146" cy="220.16352804103147" opacity="0.6383360008767001"/>
    <circle r="3.154506077710473" cx="787.7544642269253" cy="135.96077606793156" opacity="0.5052418751505771"/>
    <circle r="3.203250053218511" cx="627.0817288237911" cy="436.3396019913724" opacity="0.14140014712523508"/>
    <circle r="4.950980100776164" cx="301.1919415199772" cy="70.19214397042892" opacity="0.8876992058907872"/>
    <circle r="6.554257499093272" cx="620.2580209287555" cy="535.3208030112846" opacity="0.9279186561799957"/>
    <circle r="4.99809062283644" cx="723.3607311192873" cy="59.078773505505154" opacity="0.6569769014240685"/>
    <circle r="5.606180807629302" cx="357.32227652732917" cy="60.125655726483316" opacity="0.5404408966774964"/>
    <circle r="3.9560441511357496" cx="183.22735199691746" cy="292.72231127941836" opacity="0.17557411536251155"/>
    <circle r="9.105710490360918" cx="605.2696312689665" cy="404.6347728522706" opacity="0.5578668826345262"/>
    <circle r="5.770119167164536" cx="741.8429241568315" cy="129.69088101493855" opacity="0.6872302598692401"/>
    <circle r="3.831752795704622" cx="42.40852295975368" cy="255.02260944615594" opacity="0.5182196062711291"/>
    <circle r="5.643205024258029" cx="423.0968490451373" cy="15.99081622739057" opacity="0.9875298948747512"/>
    <circle r="5.497208334415737" cx="167.1515863478" cy="339.6263939281314" opacity="0.7639915508986748"/>
    <circle r="7.350451441267108" cx="581.7237369894397" cy="437.54216327051296" opacity="0.659390468146653"/>
    <circle r="5.414538448696353" cx="250.86857732986505" cy="292.7375259664252" opacity="0.3009592222339941"/>
    <circle r="5.4832421207088515" cx="755.124254075819" cy="90.55373926873227" opacity="0.8933818462623104"/>
    <circle r="4.769082474864531" cx="188.29603870767292" cy="436.903900035459" opacity="0.3113449131451451"/>
    <circle r="7.952459464476514" cx="312.18469084994456" cy="342.90403627847496" opacity="0.3821439380895566"/>
    <circle r="5.463493850682976" cx="550.9120887545396" cy="781.8492950267973" opacity="0.582716365137036"/>
    <circle r="6.50822789026043" cx="166.04788079824337" cy="561.4661018170038" opacity="0.5307643545273741"/>
    <circle r="4.986189203082809" cx="574.6930812940418" cy="11.86120284110984" opacity="0.11579430742471651"/>
    <circle r="4.8778919502616995" cx="315.29307455178184" cy="685.0682514077126" opacity="0.3026258712057709"/>
    <circle r="4.480176069638061" cx="321.8662181695933" cy="217.90593452199215" opacity="0.24267810995213418"/>
    <circle r="6.333929812233999" cx="256.4514908324854" cy="359.37348286119175" opacity="0.14221673307799976"/>
    <circle r="4.9470361686200155" cx="215.1515641871068" cy="414.5842039544321" opacity="0.4435533664783622"/>
    <circle r="6.998912455299651" cx="376.30677654007786" cy="480.91292316510993" opacity="0.912450068102534"/>
    <circle r="4.540931466869113" cx="318.4256120917731" cy="614.2747855028283" opacity="0.10883577474049394"/>
    <circle r="6.229216145514698" cx="763.1725791930797" cy="653.4069399178464" opacity="0.5173770886481038"/>
    <circle r="9.00703769925077" cx="17.99331263480613" cy="498.67742931203287" opacity="0.725195954828602"/>
    <circle r="4.001199007681807" cx="140.15873377697878" cy="342.5576796621592" opacity="0.8797576827748005"/>
    <circle r="4.6033909603543535" cx="733.8590610457758" cy="87.31685155442503" opacity="0.35310591103511924"/>
    <circle r="7.755106073832847" cx="134.01311212626078" cy="601.862628815013" opacity="0.6875895743696637"/>
    <circle r="5.432067489962691" cx="787.4358582124244" cy="641.4540591975278" opacity="0.967038591363744"/>
    <circle r="3.9263763721676264" cx="201.02721156276306" cy="596.9649639003724" opacity="0.6533122473680564"/>
    <circle r="5.947040647376774" cx="719.5499104070461" cy="164.04876297492788" opacity="0.44131460546679435"/>
    <circle r="3.588057261795148" cx="275.1903007891375" cy="548.2663063655444" opacity="0.2628284394527964"/>
    <circle r="3.620176006657087" cx="584.4730352714296" cy="784.8989484044203" opacity="0.15603109029815773"/>
    <circle r="6.573583017384539" cx="697.9093053252308" cy="367.19922936504275" opacity="0.2791400111652306"/>
    <circle r="4.258847952340289" cx="21.17394507589574" cy="286.5150349422928" opacity="0.36527874655777914"/>
    <circle r="4.417289317236622" cx="554.690454837316" cy="353.73187616835236" opacity="0.3775046843385753"/>
    <circle r="5.351981989838592" cx="694.0214305724884" cy="249.70438594078598" opacity="0.24030769757115628"/>
    <circle r="5.883717385700079" cx="180.83071980976177" cy="469.64384754140826" opacity="0.2765544011356055"/>
    <circle r="8.866369576807697" cx="21.914549970965144" cy="66.96738644803612" opacity="0.9374299530756761"/>
    <circle r="5.014860557802946" cx="454.65745180666863" cy="224.43494354313296" opacity="0.7011033104885315"/>
    <circle r="7.3963973317437635" cx="693.3449568190371" cy="68.55714072694596" opacity="0.7947881865973182"/>
    <circle r="4.263118314316719" cx="740.831067841863" cy="423.49364223602635" opacity="0.15112366074297823"/>
    <circle r="5.929366908005933" cx="567.5359524894302" cy="326.70499667326794" opacity="0.764746632610628"/>
    <circle r="4.2652961816408625" cx="382.394767811874" cy="559.8640690161977" opacity="0.173316044212948"/>
    <circle r="6.311246937508084" cx="126.71396487268667" cy="568.8463236988606" opacity="0.48674430903046495"/>
    <circle r="5.351292925117231" cx="206.73254734980372" cy="511.1768260897009" opacity="0.7766632627721931"/>
    <circle r="10.448312277514543" cx="592.8830453715653" cy="583.7426541599111" opacity="0.7171883772907907"/>
    <circle r="3.951222864037981" cx="311.0583202651355" cy="785.5215201180141" opacity="0.8228752710593892"/>
    <circle r="7.119523440515726" cx="559.1572004694834" cy="37.28424012762228" opacity="0.3158295985062173"/>
    <circle r="8.427686656961155" cx="514.3220263173396" cy="416.81515471900724" opacity="0.3879557217705284"/>
    <circle r="5.1815121876842705" cx="610.337786960984" cy="621.8899665808325" opacity="0.15238386991340175"/>
    <circle r="7.332996969425934" cx="150.96339237269956" cy="479.6087017752971" opacity="0.34503041231083725"/>
    <circle r="3.631696130351367" cx="753.1473792023096" cy="12.334500855244714" opacity="0.499044239142609"/>
    <circle r="7.778010920939982" cx="603.4565719871721" cy="700.5554834868946" opacity="0.9330523830279389"/>
    <circle r="5.597808789142491" cx="294.32900377716487" cy="529.2669646854459" opacity="0.6123320265518702"/>
    <circle r="7.86544980982409" cx="373.15695379593177" cy="298.10722881147507" opacity="0.2845007169699159"/>
    <circle r="3.73426792872278" cx="546.2915110191813" cy="10.746780131572763" opacity="0.9212773773093429"/>
    <circle r="6.329202634655969" cx="207.54504401141472" cy="229.8835932233124" opacity="0.9925450840549015"/>
    <circle r="3.6422757246742083" cx="313.3632283763664" cy="739.4810386121097" opacity="0.39789869201906825"/>
    <circle r="4.256341341010946" cx="305.0914568539139" cy="424.58160944655896" opacity="0.5115642390918882"/>
    <circle r="4.9233893952100285" cx="325.7027897367565" cy="44.30278331319019" opacity="0.6063405963194303"/>
    <circle r="3.913153137657479" cx="484.47993588215365" cy="607.2045498470708" opacity="0.2615734106635175"/>
    <circle r="4.349223095098687" cx="463.62936464104513" cy="394.8538098976722" opacity="0.24367993412333944"/>
    <circle r="5.839958702612957" cx="432.8980352135035" cy="468.6497577544532" opacity="0.6227791872299361"/>
    <circle r="3.1899205109360165" cx="388.29023363177623" cy="57.02181943005255" opacity="0.988076636355207"/>
    <circle r="6.168361709716724" cx="787.0217804292007" cy="410.45017306442446" opacity="0.45059802195235754"/>
    <circle r="7.072449322884201" cx="747.0584919498024" cy="394.06354381944504" opacity="0.29663587185562257"/>
    <circle r="5.36213887373712" cx="433.0183535405912" cy="47.82016475465951" opacity="0.18683620555289168"/>
    <circle r="4.442011415421796" cx="26.379691377777345" cy="532.9164658442921" opacity="0.5432616519497339"/>
    <circle r="5.23273124307736" cx="272.59339356876376" cy="482.2706317437158" opacity="0.3523278756949346"/>
    <circle r="5.651294382572489" cx="532.1446955016447" cy="749.9512183297701" opacity="0.3154671686114777"/>
    <circle r="3.5834083080021175" cx="116.03378464138551" cy="302.47341502507186" opacity="0.40653453153727803"/>
    <circle r="6.1685890979606395" cx="88.13302775302625" cy="493.6987541438379" opacity="0.4014427560222935"/>
    <circle r="5.68459957903077" cx="455.14671755044077" cy="178.2570064066879" opacity="0.4547136785057483"/>
    <circle r="4.452969683825943" cx="116.5296832440032" cy="12.702920572037772" opacity="0.5002018556439007"/>
    <circle r="4.9337406550882" cx="166.89442181930298" cy="511.3887554767953" opacity="0.40795220549824684"/>
    <circle r="3.7637859278513557" cx="607.1150925056708" cy="446.1216044394245" opacity="0.19436553972607135"/>
    <circle r="7.498391591665345" cx="682.3746822186376" cy="431.33745479151264" opacity="0.7168727786079359"/>
    <circle r="6.384074355574713" cx="564.3457681579564" cy="158.65831687090554" opacity="0.2845628862635001"/>
    <circle r="6.670972955628049" cx="334.08715120145234" cy="307.2457150852318" opacity="0.12313025314990855"/>
    <circle r="5.226124991561858" cx="358.8358441342129" cy="784.1312357676725" opacity="0.594196896834577"/>
    <circle r="4.567888411039008" cx="704.5272591368481" cy="404.5944183252161" opacity="0.23996376201424413"/>
    <circle r="3.048059020270366" cx="108.54925257814158" cy="513.2179732559994" opacity="0.4420841750319521"/>
    <circle r="5.151601607948271" cx="211.1814553148079" cy="658.4102401944074" opacity="0.656471478967219"/>
    <circle r="3.499945338812868" cx="596.3104095427406" cy="521.5817831271838" opacity="0.7515950328095651"/>
    <circle r="5.083345138847545" cx="605.2184234488823" cy="760.8571558864764" opacity="0.9682835991974426"/>
    <circle r="6.719521945376983" cx="394.2748273243823" cy="601.7934892320355" opacity="0.8769374756126671"/>
    <circle r="8.544893573433738" cx="63.33052637169872" cy="723.7316698784014" opacity="0.6532524072583558"/>
    <circle r="8.055036578613603" cx="485.42815705743806" cy="723.6740245446217" opacity="0.3562373753989755"/>
    <circle r="7.051716322116228" cx="571.7417035871175" cy="739.4732345336569" opacity="0.11226380362968327"/>
    <circle r="4.032089075970195" cx="432.6868448253097" cy="783.9169284232662" opacity="0.45129986564887736"/>
    <circle r="5.352390322113117" cx="777.1085406596219" cy="66.14475718913681" opacity="0.7108868029629308"/>
    <circle r="6.2314258572423" cx="522.8053865396379" cy="723.3017786790143" opacity="0.31343292384823734"/>
    <circle r="3.8517300790964915" cx="107.06022677659523" cy="614.9284685967489" opacity="0.9590285812194164"/>
    <circle r="4.11029292076059" cx="759.0351894101731" cy="589.747803614006" opacity="0.18229489646303973"/>
    <circle r="6.444955888400553" cx="712.8227401100185" cy="445.58515348494325" opacity="0.45100507268510615"/>
    <circle r="7.435326144010984" cx="291.52072452835836" cy="15.850512838057018" opacity="0.7767390388508215"/>
    <circle r="6.183049758179276" cx="738.2877555005462" cy="657.6964309408131" opacity="0.348732647107947"/>
    <circle r="7.0267871090372855" cx="222.00040477151225" cy="308.01080753076764" opacity="0.1701481945466986"/>
    <circle r="5.034624260258936" cx="571.7164939875299" cy="125.67997389608907" opacity="0.37453091310266295"/>
    <circle r="6.387370923365099" cx="40.24293604997811" cy="756.5296216476312" opacity="0.5817402477287453"/>
    <circle r="10.40446093529866" cx="546.4459644503595" cy="450.91112727835764" opacity="0.9603738942529716"/>
    <circle r="5.427753150170824" cx="359.1057355450146" cy="109.48430954541296" opacity="0.4957733920839128"/>
    <circle r="4.820245735659229" cx="247.2981298767195" cy="233.70224073310808" opacity="0.7242278929752118"/>
    <circle r="5.346946552487175" cx="348.3194024472783" cy="337.9483500035883" opacity="0.9583992672447212"/>
    <circle r="6.8754633951664985" cx="143.19962852441583" cy="736.2810673140054" opacity="0.8339805914301928"/>
    <circle r="2.7705287751206287" cx="92.40789242591369" cy="542.7030614760059" opacity="0.5198992761487721"/>
    <circle r="4.494291947641875" cx="510.89465138488026" cy="629.3802590972915" opacity="0.7970681998852508"/>
    <circle r="5.544891312552173" cx="12.629969126323271" cy="219.35257920494138" opacity="0.15626810625961177"/>
    <circle r="4.035948072532001" cx="739.8186633810142" cy="759.1434758170255" opacity="0.7816349955766487"/>
    <circle r="6.45963713805643" cx="674.7240830844738" cy="514.7439736149325" opacity="0.3202590044397219"/>
    <circle r="3.9902437242412927" cx="367.6549476836135" cy="241.6379171787374" opacity="0.15066007422282282"/>
    <circle r="6.01149758185351" cx="521.7013129118933" cy="73.48985040058538" opacity="0.8050696531003529"/>
    <circle r="6.990756194143879" cx="521.3630776317736" cy="221.87843080455696" opacity="0.9124861763156904"/>
    <circle r="6.562563441020566" cx="486.12489453011494" cy="164.81307946297184" opacity="0.7083662104727887"/>
    <circle r="3.587325512255516" cx="394.4176532118182" cy="401.81352614581107" opacity="0.3020293453953398"/>
    <circle r="5.090372653772262" cx="568.3376005326413" cy="483.601473209832" opacity="0.4065886943685374"/>
    <circle r="7.155396821464906" cx="570.3577448832199" cy="223.2725627680025" opacity="0.4489145228375704"/>
    <circle r="4.542708584233615" cx="71.38293021562193" cy="135.84880647281565" opacity="0.38446505074882054"/>
    <circle r="5.0611719346072945" cx="704.0182328654162" cy="135.612663875162" opacity="0.9489341402941613"/>
    <circle r="3.7025925495972007" cx="790.387903506684" cy="763.3929794244602" opacity="0.3462689553674646"/>
    <circle r="7.780475631623908" cx="92.62622972455546" cy="579.7067569725748" opacity="0.4452920788115726"/>
    <circle r="7.767879773418526" cx="632.5523513488787" cy="153.6298836114154" opacity="0.6897357715229573"/>
    <circle r="4.211930471191888" cx="108.83152034976447" cy="207.06085816030367" opacity="0.8432975622444607"/>
    <circle r="5.354753877496595" cx="183.03395537687518" cy="538.0928433610197" opacity="0.3191806639732763"/>
    <circle r="4.929228729356411" cx="649.5128770934017" cy="510.8887431957066" opacity="0.9901961932733749"/>
    <circle r="4.5806084006192425" cx="412.80835555284597" cy="186.52011536855653" opacity="0.1368938238447785"/>
    <circle r="5.0356182789049315" cx="766.8366484554455" cy="783.9045553216163" opacity="0.20552727375667365"/>
    <circle r="4.394647034597177" cx="331.3557785954282" cy="112.94040733423633" opacity="0.9215490104637657"/>
    <circle r="3.866487566523767" cx="660.0865089769884" cy="672.7593574662028" opacity="0.23898336409690318"/>
    <circle r="4.918065302149859" cx="395.54554788609227" cy="451.6795905556985" opacity="0.7255910772266306"/>
    <circle r="2.952615270613766" cx="85.99993955372709" cy="248.6047216723389" opacity="0.7905725863113107"/>
    <circle r="7.294680653167543" cx="404.34511523272346" cy="290.17557723755493" opacity="0.20978826041492737"/>
    <circle r="5.109831377206464" cx="122.79608784772856" cy="274.18055174827094" opacity="0.630633536710395"/>
    <circle r="7.763261882998888" cx="393.7865888609415" cy="157.1209814621949" opacity="0.45353665802506904"/>
    <circle r="4.265103272628712" cx="164.63676305498169" cy="98.05652639072531" opacity="0.30749838601771495"/>
    <circle r="6.8135202448473535" cx="479.64779084597524" cy="234.72960834846398" opacity="0.8325450201966299"/>
    <circle r="5.656843853078389" cx="241.2256241663432" cy="465.653746615629" opacity="0.2409145951321588"/>
    <circle r="6.735368438775102" cx="785.7185618968037" cy="14.24162030804157" opacity="0.1937715185413737"/>
    <circle r="7.00942330665502" cx="785.6889976908906" cy="540.6319114315158" opacity="0.5279390208162625"/>
    <circle r="3.8699810299247215" cx="768.7379349801602" cy="39.032132183432864" opacity="0.9118379303954778"/>
    <circle r="4.41386309404954" cx="325.13388432468827" cy="508.7859111059764" opacity="0.3252937377524733"/>
    <circle r="5.522042053139474" cx="523.888566809731" cy="15.15134413056924" opacity="0.8147996584016338"/>
    <circle r="4.719195353865369" cx="743.9595907994477" cy="37.71319553361385" opacity="0.8205283905745095"/>
    <circle r="7.643281048930342" cx="737.430288790983" cy="342.17724150552993" opacity="0.870980047313098"/>
    <circle r="4.604351669076992" cx="650.474668899278" cy="443.3083310802998" opacity="0.27384124367878043"/>
    <circle r="3.116033617477796" cx="786.2083345103507" cy="743.2038389310188" opacity="0.42790080175008416"/>
    <circle r="7.030613477983357" cx="407.84484388214605" cy="484.79787559736513" opacity="0.32563196873545697"/>
    <circle r="7.492833377540581" cx="436.74353061050357" cy="612.1942110317068" opacity="0.34483137832582"/>
    <circle r="6.548403048612913" cx="539.9617346140044" cy="132.07200927887905" opacity="0.5827594889482611"/>
    <circle r="5.086798424215743" cx="16.218613965154027" cy="453.9027693086872" opacity="0.6669784571304537"/>
    <circle r="6.876534828160661" cx="91.77635280667538" cy="360.66343988512205" opacity="0.13232008867615902"/>
    <circle r="6.955993214999493" cx="48.71919015326991" cy="639.9085514730872" opacity="0.8293924919901547"/>
    <circle r="7.045781236670068" cx="246.8104976952335" cy="27.048236830052122" opacity="0.6233771429719444"/>
    <circle r="5.80374544909159" cx="11.565242875537058" cy="258.00518654337463" opacity="0.1633763139645116"/>
    <circle r="4.504661915550609" cx="625.6007739545191" cy="468.6021385691398" opacity="0.40435451069847395"/>
    <circle r="7.9487281477201925" cx="460.63012813262486" cy="461.8922174598131" opacity="0.8046425231261862"/>
    <circle r="5.466313426319362" cx="751.1860461002182" cy="64.533269263803" opacity="0.7674966020933308"/>
    <circle r="4.888195444876154" cx="535.043120049339" cy="105.0565178842904" opacity="0.4277434425248544"/>
    <circle r="4.864503123415871" cx="404.176905065009" cy="375.94603769241223" opacity="0.42535008727430146"/>
    <circle r="5.179660596122039" cx="713.6023866775929" cy="195.1594424796745" opacity="0.4190347040959863"/>
    <circle r="6.907110432388233" cx="692.3335405997746" cy="785.0967082837069" opacity="0.2700912894018719"/>
    <circle r="7.509118901624245" cx="19.004452223040424" cy="667.8609914746413" opacity="0.796780850924884"/>
    <circle r="7.990873539178294" cx="261.9569139530771" cy="204.33118139727566" opacity="0.7624630274846596"/>
    <circle r="8.463812007708153" cx="281.9067696725902" cy="607.17263326601" opacity="0.8235341157019457"/>
    <circle r="6.214552591247507" cx="363.8832443338595" cy="667.4614013434209" opacity="0.5790013968293366"/>
    <circle r="3.9766846408579126" cx="603.1633015454792" cy="76.18519818702568" opacity="0.8941088986776887"/>
    <circle r="5.419521167048573" cx="140.48193906322422" cy="229.3644669029664" opacity="0.6998269148724787"/>
    <circle r="5.0454742947854205" cx="535.7361177767955" cy="657.9117732262953" opacity="0.9374742637035521"/>
    <circle r="6.061211347296478" cx="381.55990464850726" cy="87.18609134561387" opacity="0.8391985733333353"/>
    <circle r="5.478268854375436" cx="162.98773345381613" cy="202.37464478560904" opacity="0.4829600478048063"/>
    <circle r="6.443585044457508" cx="101.18525690788516" cy="739.8130202975871" opacity="0.20556317792247464"/>
    <circle r="7.094394254347389" cx="675.6406558205829" cy="339.39438854643794" opacity="0.2817867608455318"/>
    <circle r="5.412764568940714" cx="421.95905749990703" cy="232.6897478605868" opacity="0.1977917227587554"/>
    <circle r="6.69139512867196" cx="678.5368989280952" cy="569.2036226566707" opacity="0.731659979626059"/>
    <circle r="8.4120305097702" cx="60.976216126008254" cy="513.5289146733624" opacity="0.6422355305208214"/>
    <circle r="3.90597461426988" cx="564.3196066563185" cy="516.0417022325793" opacity="0.24272847893974248"/>
    <circle r="5.898453810228998" cx="599.2483096734152" cy="105.23270933358178" opacity="0.3032065480817293"/>
    <circle r="6.149041438713541" cx="697.838306926738" cy="283.35537241306264" opacity="0.6390611939719046"/>
    <circle r="7.125144126509877" cx="282.51178676927265" cy="137.94469813526288" opacity="0.21957125071673333"/>
    <circle r="5.812446979985364" cx="123.32396124688944" cy="143.21459872499543" opacity="0.4153315406165581"/>
    <circle r="5.064207811659504" cx="20.419610612929215" cy="188.9648803094886" opacity="0.4368641634338306"/>
    <circle r="3.0100923393290877" cx="227.4756099133128" cy="254.93648760585666" opacity="0.5079934908146198"/>
    <circle r="7.2028585857917875" cx="308.5090574665879" cy="190.77935105372285" opacity="0.5271412400343096"/>
    <circle r="3.2378126408722943" cx="344.1317048783183" cy="597.4845125394012" opacity="0.5316996433153327"/>
    <circle r="5.885960093249608" cx="594.5621416539419" cy="662.4290140815265" opacity="0.7360632778960277"/>
    <circle r="6.453732843905463" cx="506.926865833262" cy="194.25416654954907" opacity="0.9431539676275884"/>
    <circle r="4.793077205055775" cx="364.28919925511207" cy="23.708202056219452" opacity="0.35469452342737107"/>
    <circle r="4.63471994164235" cx="769.2747424596073" cy="757.5445135944625" opacity="0.7953190926555795"/>
    <circle r="5.240928993236091" cx="223.8034646964127" cy="349.97518886397916" opacity="0.8132102674575993"/>
    <circle r="6.820394516395347" cx="47.98516841366848" cy="431.06867834591634" opacity="0.5268676789317325"/>
    <circle r="5.7704355014283895" cx="727.8457793984094" cy="514.2662394921753" opacity="0.7494781421259172"/>
    <circle r="5.475406831513342" cx="245.39699560867552" cy="605.4036005402778" opacity="0.7498688217733892"/>
    <circle r="5.635971201003757" cx="58.03371233206461" cy="378.919264878447" opacity="0.22457946519839614"/>
    <circle r="8.147108518581264" cx="78.43567057876461" cy="412.71363607562853" opacity="0.11453487112958054"/>
    <circle r="4.322502815693028" cx="785.3763388012768" cy="611.5035226393857" opacity="0.48106680255598655"/>
    <circle r="4.386641568269799" cx="403.4210769748935" cy="762.7983036138659" opacity="0.5298652665844541"/>
    <circle r="3.9111971843970355" cx="232.18100164474222" cy="535.3551859242149" opacity="0.6827357941084242"/>
    <circle r="5.53213645993983" cx="424.9728016262016" cy="338.9203307641196" opacity="0.988940915503102"/>
    <circle r="6.323144940573827" cx="500.212596472345" cy="457.971322190481" opacity="0.930207320939491"/>
    <circle r="5.106489088958399" cx="114.45579030562564" cy="337.00222757622424" opacity="0.31395276806993294"/>
    <circle r="3.986964029225462" cx="486.2298286944731" cy="318.2032213377291" opacity="0.8530383381836524"/>
    <circle r="6.422370787352456" cx="660.8504918271651" cy="542.1581936611333" opacity="0.6962879235469644"/>
    <circle r="3.1615988724817057" cx="249.52304238263184" cy="521.9491201879307" opacity="0.9872392685881811"/>
    <circle r="6.835561942589351" cx="111.99589981385981" cy="389.83186515898336" opacity="0.2501698925886827"/>
    <circle r="7.010407040807053" cx="70.89844405433644" cy="65.73827258989247" opacity="0.5253941618832173"/>
    <circle r="6.352756632537732" cx="354.69787570532424" cy="447.39463066307536" opacity="0.4927302880005774"/>
    <circle r="6.2718762760473385" cx="709.0379801448717" cy="588.3927762196695" opacity="0.8272125429152583"/>
    <circle r="3.8243243240174376" cx="749.6576400580094" cy="459.9992743568672" opacity="0.937845730448036"/>
    <circle r="6.87458746860325" cx="183.1761661998069" cy="47.609497346220905" opacity="0.7618778014325346"/>
    <circle r="4.765786106185433" cx="348.3504503922746" cy="484.48936028758027" opacity="0.34186724750777386"/>
    <circle r="6.953024495804017" cx="141.38373389098405" cy="534.1474762653766" opacity="0.5658055662669366"/>
    <circle r="5.3002740234947066" cx="723.8765653747671" cy="256.3655648838857" opacity="0.8425534821851421"/>
    <circle r="6.324726797571025" cx="505.64485254021525" cy="664.6931739560227" opacity="0.628197488289887"/>
    <circle r="6.411494477206507" cx="730.6312642677938" cy="481.55099488963947" opacity="0.1696702951557098"/>
    <circle r="4.962799019939824" cx="434.22245558399857" cy="261.686034612349" opacity="0.37349197457761707"/>
    <circle r="4.766049935567844" cx="733.1263105747576" cy="575.6817205933978" opacity="0.8475009471481015"/>
    <circle r="6.231450028053368" cx="499.27351490876805" cy="585.3479272236754" opacity="0.9358490115712471"/>
    <circle r="5.492699640271695" cx="754.9140554929749" cy="519.289742023487" opacity="0.5099482602564027"/>
    <circle r="7.295605238609225" cx="435.0920693472178" cy="300.20288255012974" opacity="0.3480205385982367"/>
    <circle r="7.202269085832822" cx="290.3574844837507" cy="704.579103101058" opacity="0.554371353549217"/>
    <circle r="5.76937904126073" cx="90.48630299043072" cy="180.9194834536262" opacity="0.7789436567971583"/>
    <circle r="4.594883898429156" cx="27.342354963892454" cy="778.0463922581438" opacity="0.35665512404461164"/>
    <circle r="8.107403211829856" cx="581.8233946733792" cy="371.9800206851191" opacity="0.2546081292404283"/>
    <circle r="5.21149082315146" cx="106.26508858842716" cy="436.44675814055825" opacity="0.45694243037201177"/>
    <circle r="6.358564363500217" cx="651.7958914128878" cy="479.19610485926455" opacity="0.5111884304164832"/>
    <circle r="6.521739776495914" cx="495.6396270964192" cy="18.73004253524406" opacity="0.463383519518924"/>
    <circle r="6.071269038768293" cx="415.4462100287668" cy="72.51085438628608" opacity="0.6333444477125483"/>
    <circle r="5.8858393217767615" cx="16.075735003372202" cy="721.9102650194714" opacity="0.7586223764997186"/>
    <circle r="6.537993292096371" cx="214.46513594954507" cy="200.13558512010735" opacity="0.7097643408364689"/>
    <circle r="7.5779025255911066" cx="486.0024020203627" cy="542.5495544471428" opacity="0.7282909504011015"/>
    <circle r="6.761779901219606" cx="77.36799345463841" cy="463.3963910259456" opacity="0.927679826148327"/>
    <circle r="2.501779431503669" cx="306.793563204145" cy="129.69420554184873" opacity="0.7778281572574157"/>
    <circle r="4.75269012535804" cx="659.6311034793436" cy="612.7439966171884" opacity="0.7100869497448183"/>
    <circle r="7.0814900280589645" cx="55.8548500621847" cy="295.9955608852536" opacity="0.7515922364150264"/>
    <circle r="7.4661053562315285" cx="588.0810261583783" cy="254.14081120099826" opacity="0.2330463750548235"/>
    <circle r="5.03115763939717" cx="648.3587363767327" cy="637.710677723766" opacity="0.693205343058472"/>
    <circle r="3.595479110468996" cx="244.60166367824587" cy="270.77216611275776" opacity="0.8482839997965235"/>
    <circle r="4.581159405526493" cx="306.42978448251824" cy="575.59451662724" opacity="0.1339841801816904"/>
    <circle r="2.9891260543910487" cx="322.1891305280939" cy="138.15211858134884" opacity="0.6848355766185552"/>
    <circle r="5.233528658857716" cx="114.22032448057179" cy="537.8712191953421" opacity="0.8524766638026424"/>
    <circle r="6.714572522980172" cx="191.17852394632203" cy="360.1601801716867" opacity="0.2130862034964302"/>
    <circle r="5.307615259689117" cx="697.6265460615978" cy="531.4259548640449" opacity="0.6508725843201262"/>
    <circle r="7.886079831177227" cx="658.0119851128206" cy="765.7090745575517" opacity="0.3807260179844404"/>
    <circle r="6.511402860196399" cx="334.3535095864356" cy="83.61088881810772" opacity="0.4243143007897522"/>
    <circle r="4.339887855735856" cx="543.67209712434" cy="259.17920788077873" opacity="0.3127722798892287"/>
    <circle r="8.923408562394133" cx="134.56942913739522" cy="780.6598599898344" opacity="0.8089657536783347"/>
    <circle r="2.8480074977829766" cx="754.3293763480842" cy="629.6915362090513" opacity="0.8329707218934571"/>
    <circle r="4.188129658527925" cx="475.83059375968014" cy="200.07737158841778" opacity="0.8856696508762679"/>
    <circle r="6.701278318936437" cx="767.753039401196" cy="114.61446120274758" opacity="0.8299841501643018"/>
    <circle r="4.893076002272009" cx="323.70759220788796" cy="438.4093686269504" opacity="0.49428995552116606"/>
    <circle r="4.473724628418137" cx="519.2134685372657" cy="771.8694484503116" opacity="0.8138433287428746"/>
    <circle r="4.2804702755779855" cx="140.52350447237427" cy="317.5790244487339" opacity="0.8603028699061591"/>
    <circle r="7.407850279353482" cx="526.7717063977316" cy="297.48834022352247" opacity="0.22673883607462791"/>
    <circle r="5.501036566032816" cx="19.226225681672915" cy="405.3319612891894" opacity="0.8194852596890662"/>
    <circle r="6.0000895260503455" cx="61.65300671515161" cy="592.513621077425" opacity="0.9696039206792894"/>
    <circle r="5.840839496883183" cx="360.55467407275876" cy="151.13754869460337" opacity="0.32407339825302733"/>
    <circle r="4.330402995211127" cx="663.5107907661984" cy="128.46308209298917" opacity="0.7582439252549241"/>
    <circle r="4.627093681257632" cx="84.40838802752928" cy="99.70578726943283" opacity="0.6473415218900922"/>
    <circle r="7.250952088399922" cx="462.2776175768648" cy="79.33024597370054" opacity="0.81255646119296"/>
    <circle r="5.483502588232538" cx="388.9385574193221" cy="327.94168558078" opacity="0.2562681196830089"/>
    <circle r="8.906823345004927" cx="238.16741341418677" cy="170.07763029713442" opacity="0.957343887407433"/>
    <circle r="4.763263286264998" cx="725.6057380248043" cy="614.7046141598859" opacity="0.4226041444391204"/>
    <circle r="6.959875035287461" cx="138.57122578201734" cy="406.97220463607283" opacity="0.68169088077601"/>
    <circle r="7.470740554316009" cx="734.0196578201948" cy="289.34494194288425" opacity="0.1375753957708395"/>
    <circle r="3.4939035817816113" cx="205.82471389613772" cy="253.62454065527368" opacity="0.7521324356525237"/>
    <circle r="4.175061872858039" cx="715.56988200083" cy="102.01086671200508" opacity="0.11045059161706404"/>
    <circle r="6.850117201255835" cx="13.147422625262836" cy="628.1445068793743" opacity="0.2211966742173943"/>
    <circle r="4.746462518894155" cx="568.0146842515037" cy="651.0820501416533" opacity="0.5136887739461746"/>
    <circle r="6.695928205617907" cx="473.14534181063095" cy="685.3408209476628" opacity="0.5726099382102265"/>
    <circle r="3.699407795327779" cx="789.6571804052306" cy="787.478656007054" opacity="0.8710800529699582"/>
    <circle r="4.8378510973210185" cx="465.5571416325982" cy="43.35146370395332" opacity="0.25733225482456606"/>
    <circle r="3.324592431206371" cx="299.5958652154351" cy="462.4925785125654" opacity="0.8272400800326495"/>
    <circle r="7.318440887700172" cx="293.36787268662863" cy="643.2053707893588" opacity="0.5786261948748967"/>
    <circle r="8.757051057567637" cx="18.83941742987585" cy="361.49287429444746" opacity="0.7020603311387875"/>
    <circle r="4.952914883454328" cx="779.0836615578182" cy="499.88384192034266" opacity="0.8902089511985548"/>
    <circle r="4.072828641512265" cx="289.3316187633347" cy="766.6805888358346" opacity="0.35471554030675445"/>
    <circle r="6.296485780126439" cx="276.3863480136145" cy="170.0334298429667" opacity="0.4527514679753728"/>
    <circle r="4.116376566255529" cx="731.3184972417588" cy="719.985958521101" opacity="0.7242653928515322"/>
    <circle r="6.24356469135716" cx="757.363837937833" cy="737.0604196148983" opacity="0.7351051161572563"/>
    <circle r="8.134078671987648" cx="180.06292283815483" cy="741.4828941170642" opacity="0.40768771184145247"/>
    <circle r="7.581363279379105" cx="605.6782922678535" cy="185.61883720072538" opacity="0.38194427162256706"/>
    <circle r="7.339499358950995" cx="778.9404335635244" cy="379.5157361802509" opacity="0.6648924192900783"/>
    <circle r="5.645917687490435" cx="127.21292135968038" cy="86.6286472040859" opacity="0.9591428722937064"/>
    <circle r="4.850448809584094" cx="204.247379684796" cy="628.0420136517265" opacity="0.9784130403471645"/>
    <circle r="7.827578435472608" cx="208.30220361933823" cy="20.81158324288344" opacity="0.35356793957385746"/>
    <circle r="7.8200807166120825" cx="29.707681763385757" cy="601.7401151146898" opacity="0.46630951185432046"/>
    <circle r="6.696079860152725" cx="145.46427435632825" cy="56.39783295962358" opacity="0.5632359248009253"/>
    <circle r="5.178152956693774" cx="387.82932692297317" cy="120.74537632435847" opacity="0.25536700506103205"/>
    <circle r="7.605571868004237" cx="681.3888621003204" cy="734.0844347512685" opacity="0.4233037637553141"/>
    <circle r="4.769323536579831" cx="95.31005499856832" cy="784.3255581470927" opacity="0.48929887527897853"/>
    <circle r="8.625359889009015" cx="529.3284436828923" cy="498.60547922003684" opacity="0.9001037826062221"/>
    <circle r="4.93089024335936" cx="748.5608867723045" cy="211.82353771291386" opacity="0.19538046957404154"/>
    <circle r="3.4644620048171824" cx="71.20961967881898" cy="550.4857677092446" opacity="0.9165126918166027"/>
    <circle r="4.96619029008236" cx="292.1726068254064" cy="223.61890922657363" opacity="0.7582492152704599"/>
    <circle r="3.6878421303816165" cx="752.2952524696587" cy="609.4423798178354" opacity="0.6827541684703052"/>
    <circle r="5.4806941678142795" cx="278.89225736291536" cy="251.35344272966816" opacity="0.5350121492004288"/>
    <circle r="6.4741052220960285" cx="264.6884692997805" cy="786.6623998370081" opacity="0.6794461666970296"/>
    <circle r="3.74820874353584" cx="222.1436115302704" cy="441.50027916588374" opacity="0.9359180034902902"/>
    <circle r="3.2998491659827307" cx="198.75974427244986" cy="574.9808468937292" opacity="0.4171735264886659"/>
    <circle r="5.789388170867975" cx="269.1856855825289" cy="398.4246620350164" opacity="0.16437395711076108"/>
    <circle r="5.324369941817512" cx="17.050091419677994" cy="116.92542672127782" opacity="0.716419263424013"/>
    <circle r="7.50615632513316" cx="620.7514213457499" cy="225.81267882897347" opacity="0.9551568368009495"/>
    <circle r="4.9303354855590955" cx="192.84440551964363" cy="323.5226768398656" opacity="0.30479957783029266"/>
  </g>
</svg>
